<svg width="30" height="29" viewBox="0 0 30 29" fill="none" xmlns="http://www.w3.org/2000/svg">
<path d="M23.63 10.4921C23.2212 10.4921 22.8899 10.8234 22.8899 11.2321V24.7471C22.8899 26.1753 21.7277 27.3374 20.2995 27.3374H4.07065C2.64246 27.3374 1.48025 26.1752 1.48025 24.7471V8.51816C1.48025 7.08997 2.64246 5.92782 4.07065 5.92782H20.2995C20.7082 5.92782 21.0396 5.59645 21.0396 5.18773C21.0396 4.77901 20.7082 4.44763 20.2995 4.44763H4.07065C1.82605 4.44763 0 6.27363 0 8.51816V24.7471C0 26.9916 1.82605 28.8176 4.07065 28.8176H20.2995C22.544 28.8176 24.3701 26.9916 24.3701 24.7471V11.2322C24.3701 10.8235 24.0387 10.4921 23.63 10.4921Z" fill="#031A6B"/>
<path d="M29.3295 0.669041C28.4373 -0.223196 26.9856 -0.222832 26.0941 0.669041L13.4169 13.3466C13.3999 13.3636 13.2087 13.5623 13.1592 13.6737L11.4037 17.6178C11.279 17.8978 11.3397 18.2256 11.5565 18.4421C11.6981 18.5837 11.8875 18.6589 12.0801 18.6589C12.1816 18.6589 12.2839 18.6379 12.3808 18.5948L16.3249 16.8393C16.4358 16.7899 16.6349 16.5986 16.652 16.5816L29.3295 3.90449C29.7617 3.47225 29.9999 2.89769 29.9999 2.28658C29.9999 1.67553 29.7617 1.10085 29.3295 0.669041ZM28.2829 2.85757L15.6054 15.5351C15.6032 15.5373 15.602 15.5399 15.6 15.5416L13.5398 16.4588L14.4569 14.3986C14.4587 14.3965 14.4612 14.3953 14.4634 14.3932L27.1407 1.71566C27.446 1.41023 27.9783 1.41059 28.283 1.71596C28.4356 1.86811 28.5197 2.07086 28.5197 2.28658C28.5197 2.50231 28.4355 2.705 28.2829 2.85757Z" fill="#031A6B"/>
</svg>
