<svg width="115" height="115" viewBox="0 0 115 115" fill="none" xmlns="http://www.w3.org/2000/svg">
<path d="M107.83 29.6529C102.44 20.3164 90.6923 20.2721 78.8759 23.4519C77.3887 13.8903 72.7202 0 58.5599 0C47.7809 0 41.8739 10.1249 38.7161 21.9412C29.6967 18.4685 15.3105 15.5598 8.22991 27.8471C2.84131 37.1836 8.65914 47.3751 17.3176 56.0113C9.78668 62.0782 0.0898457 73.0816 7.17066 85.3471C12.5604 94.6836 24.3081 94.7279 36.1012 91.5481C37.6117 101.109 42.2789 115 56.4405 115C67.2186 115 73.1265 104.853 76.2832 93.0368C85.326 96.5315 99.6888 99.4182 106.769 87.1529C112.159 77.8382 106.341 67.6472 97.6828 59.0107C105.214 52.9218 114.909 41.9182 107.83 29.6529ZM100.343 84.2658C95.6524 92.3607 84.4913 89.8568 77.5682 87.309C79.1018 79.2824 79.5753 71.0734 79.5753 65.2115H75.3814C75.3814 70.3755 74.547 77.9064 72.7202 85.2348C72.247 87.1067 71.7061 88.9563 71.0974 90.7597C67.9628 100.162 62.9564 107.986 55.7415 107.986C46.3839 107.986 42.9563 97.073 41.7154 89.813C49.45 87.1284 56.7786 83.4314 61.852 80.4784L59.7546 76.8474C55.2901 79.4169 48.3449 82.4626 41.0846 84.5369C39.2128 85.0787 37.3411 85.5521 35.4692 85.9111C25.7735 87.8975 16.5063 87.4901 12.8982 81.2208C8.22991 73.1261 15.9426 64.7165 21.6249 59.9799C27.826 65.3243 34.6797 69.834 39.7765 72.7649L41.8739 69.1359C37.4091 66.5641 31.2973 62.0542 25.864 56.7781C24.4887 55.448 23.1577 54.074 21.8947 52.6514C15.3105 45.2327 11.0485 37.0035 14.6564 30.7344C19.3249 22.6395 30.486 25.1434 37.4094 27.6912C35.8757 35.7176 35.402 43.9269 35.402 49.7887H39.6191C39.6191 44.6247 40.4526 37.0938 42.2789 29.7655C42.7524 27.8936 43.2941 26.0219 43.903 24.2185C47.0377 14.8159 52.0429 7.01388 59.2589 7.01388C68.6166 7.01388 72.0439 17.9274 73.2838 25.1875C65.5504 27.8716 58.1988 31.5691 53.1251 34.522L55.2445 38.153C59.6872 35.5835 66.6324 32.5378 73.9158 30.4635C75.7643 29.9218 77.6362 29.4483 79.5079 29.0894C89.2267 27.1029 98.4939 27.5104 102.102 33.7797C106.769 41.8744 99.0577 50.284 93.3753 55.0205C87.1743 49.6762 80.2972 45.1665 75.2237 42.2355L73.1263 45.8643C77.568 48.4366 83.7018 52.9463 89.1133 58.2223C90.5115 59.5523 91.8414 60.9509 93.1044 62.3709C99.6888 69.7675 103.951 77.9965 100.343 84.2658Z" fill="black"/>
<path d="M57.5007 49.4185C53.0381 49.4185 49.4204 53.0342 49.4204 57.4977C49.4204 61.9611 53.0384 65.5791 57.5007 65.5791C61.9623 65.5791 65.5801 61.9611 65.5801 57.4977C65.5801 53.034 61.9623 49.4185 57.5007 49.4185Z" fill="black"/>
</svg>
