<svg width="2026" height="2229" viewBox="0 0 2026 2229" fill="none" xmlns="http://www.w3.org/2000/svg">
<path d="M964.064 35.1758C980.553 -10.71 1045.45 -10.71 1061.94 35.1758L1127.75 218.329C1141.16 255.633 1189.7 264.821 1215.81 234.997L1336.52 97.1232C1368.31 60.8197 1428.1 83.621 1427.65 131.87L1425.65 341.94C1425.29 380.39 1465.34 405.923 1500.04 389.364L1664.31 310.989C1706.67 290.775 1752.02 332.604 1735.28 376.459L1656.66 582.507C1643.58 616.792 1669.16 653.477 1705.86 653.042L1897.42 650.77C1942.91 650.23 1967.11 704.245 1936.43 737.837L1788.55 899.724C1764.67 925.867 1773.33 967.713 1805.63 982.226L1994.44 1067.07C2035.36 1085.45 2035.36 1143.55 1994.44 1161.93L1805.63 1246.77C1773.33 1261.29 1764.67 1303.13 1788.55 1329.28L1936.43 1491.16C1967.11 1524.75 1942.91 1578.77 1897.42 1578.23L1705.86 1575.96C1669.16 1575.52 1643.58 1612.21 1656.66 1646.49L1735.28 1852.54C1752.02 1896.4 1706.67 1938.22 1664.31 1918.01L1500.04 1839.64C1465.34 1823.08 1425.29 1848.61 1425.65 1887.06L1427.65 2097.13C1428.1 2145.38 1368.31 2168.18 1336.52 2131.88L1215.81 1994C1189.7 1964.18 1141.16 1973.37 1127.75 2010.67L1061.94 2193.82C1045.45 2239.71 980.553 2239.71 964.064 2193.82L898.246 2010.67C884.84 1973.37 836.297 1964.18 810.186 1994L689.476 2131.88C657.692 2168.18 597.897 2145.38 598.354 2097.13L600.347 1887.06C600.712 1848.61 560.661 1823.08 525.956 1839.64L361.693 1918.01C319.329 1938.22 273.983 1896.4 290.717 1852.54L369.342 1646.49C382.425 1612.21 356.837 1575.52 320.142 1575.96L128.583 1578.23C83.0905 1578.77 58.8891 1524.75 89.5731 1491.16L237.45 1329.28C261.331 1303.13 252.668 1261.29 220.37 1246.77L31.5569 1161.93C-9.35894 1143.55 -9.35893 1085.45 31.5569 1067.07L220.37 982.226C252.668 967.713 261.331 925.867 237.45 899.724L89.573 737.836C58.889 704.245 83.0905 650.23 128.583 650.77L320.142 653.042C356.837 653.477 382.425 616.792 369.342 582.507L290.717 376.459C273.983 332.604 319.329 290.775 361.693 310.989L525.956 389.364C560.661 405.923 600.712 380.39 600.347 341.94L598.354 131.87C597.897 83.6211 657.692 60.8197 689.476 97.1232L810.186 234.997C836.297 264.821 884.84 255.633 898.246 218.329L964.064 35.1758Z" fill="#031A6B"/>
</svg>
