<svg width="2352" height="2555" viewBox="0 0 2352 2555" fill="none" xmlns="http://www.w3.org/2000/svg">
<g filter="url(#filter0_f_162_14)">
<path d="M1127.06 198.176C1143.55 152.29 1208.45 152.29 1224.94 198.176L1290.75 381.329C1304.16 418.633 1352.7 427.821 1378.81 397.997L1499.52 260.123C1531.31 223.82 1591.1 246.621 1590.65 294.87L1588.65 504.94C1588.29 543.39 1628.34 568.923 1663.04 552.364L1827.31 473.989C1869.67 453.775 1915.02 495.604 1898.28 539.459L1819.66 745.507C1806.58 779.792 1832.16 816.477 1868.86 816.042L2060.42 813.77C2105.91 813.23 2130.11 867.245 2099.43 900.837L1951.55 1062.72C1927.67 1088.87 1936.33 1130.71 1968.63 1145.23L2157.44 1230.07C2198.36 1248.45 2198.36 1306.55 2157.44 1324.93L1968.63 1409.77C1936.33 1424.29 1927.67 1466.13 1951.55 1492.28L2099.43 1654.16C2130.11 1687.75 2105.91 1741.77 2060.42 1741.23L1868.86 1738.96C1832.16 1738.52 1806.58 1775.21 1819.66 1809.49L1898.28 2015.54C1915.02 2059.4 1869.67 2101.22 1827.31 2081.01L1663.04 2002.64C1628.34 1986.08 1588.29 2011.61 1588.65 2050.06L1590.65 2260.13C1591.1 2308.38 1531.31 2331.18 1499.52 2294.88L1378.81 2157C1352.7 2127.18 1304.16 2136.37 1290.75 2173.67L1224.94 2356.82C1208.45 2402.71 1143.55 2402.71 1127.06 2356.82L1061.25 2173.67C1047.84 2136.37 999.297 2127.18 973.186 2157L852.476 2294.88C820.692 2331.18 760.897 2308.38 761.354 2260.13L763.347 2050.06C763.712 2011.61 723.661 1986.08 688.956 2002.64L524.693 2081.01C482.329 2101.22 436.983 2059.4 453.717 2015.54L532.342 1809.49C545.425 1775.21 519.837 1738.52 483.142 1738.96L291.583 1741.23C246.091 1741.77 221.889 1687.75 252.573 1654.16L400.45 1492.28C424.331 1466.13 415.668 1424.29 383.37 1409.77L194.557 1324.93C153.641 1306.55 153.641 1248.45 194.557 1230.07L383.37 1145.23C415.668 1130.71 424.331 1088.87 400.45 1062.72L252.573 900.836C221.889 867.245 246.091 813.23 291.583 813.77L483.142 816.042C519.837 816.477 545.425 779.792 532.342 745.507L453.717 539.459C436.983 495.604 482.329 453.775 524.693 473.989L688.956 552.364C723.661 568.923 763.712 543.39 763.347 504.94L761.354 294.87C760.897 246.621 820.692 223.82 852.476 260.123L973.186 397.997C999.297 427.821 1047.84 418.633 1061.25 381.329L1127.06 198.176Z" fill="#030F6B"/>
</g>
<defs>
<filter id="filter0_f_162_14" x="0.470123" y="0.361481" width="2351.06" height="2554.28" filterUnits="userSpaceOnUse" color-interpolation-filters="sRGB">
<feFlood flood-opacity="0" result="BackgroundImageFix"/>
<feBlend mode="normal" in="SourceGraphic" in2="BackgroundImageFix" result="shape"/>
<feGaussianBlur stdDeviation="81.7" result="effect1_foregroundBlur_162_14"/>
</filter>
</defs>
</svg>
