<svg width="194" height="190" viewBox="0 0 194 190" fill="none" xmlns="http://www.w3.org/2000/svg">
<path d="M65.9009 15.6179C64.2438 -1.01575 87.8712 -6.03791 93.1228 9.83168C96.9087 21.2719 112.418 22.902 118.5 12.4989C126.936 -1.93201 149.003 7.89281 143.924 23.8184C140.262 35.299 151.852 45.7341 162.887 40.8926C178.194 34.1765 190.272 55.0955 176.802 64.9941C167.091 72.1299 170.334 87.3841 182.107 89.9534C198.439 93.5175 195.914 117.54 179.198 117.631C167.148 117.696 160.805 131.943 168.819 140.942C179.937 153.425 163.774 171.376 150.197 161.624C140.41 154.594 126.904 162.391 128.099 174.382C129.756 191.016 106.129 196.038 100.877 180.168C97.0913 168.728 81.5817 167.098 75.5001 177.501C67.0637 191.932 44.9968 182.107 50.076 166.182C53.7376 154.701 42.1482 144.266 31.1133 149.107C15.8058 155.823 3.72822 134.904 17.1982 125.006C26.9086 117.87 23.6662 102.616 11.893 100.047C-4.43862 96.4825 -1.91371 72.4596 14.802 72.3689C26.8522 72.3036 33.1952 58.0568 25.1807 49.0581C14.063 36.5752 30.226 18.6244 43.8026 28.3763C53.5898 35.4063 67.0955 27.6088 65.9009 15.6179Z" fill="#05B2DC"/>
</svg>
