<svg width="1470" height="1329" viewBox="0 0 1470 1329" fill="none" xmlns="http://www.w3.org/2000/svg">
<path d="M687.718 31.2874C706.246 -9.18743 763.754 -9.18746 782.282 31.2873L817.228 107.628C831.819 139.502 873.125 148.102 899.224 124.7L967.931 63.0944C1001.64 32.8711 1055.19 57.1691 1054.64 102.438L1053.81 170.882C1053.37 207.445 1089.81 233.033 1124.05 220.207L1206.34 189.385C1250.32 172.911 1291.88 218.573 1271.34 260.814L1247.47 309.929C1230.59 344.656 1256.11 385.019 1294.72 384.659L1367.82 383.979C1416.3 383.527 1438.97 443.813 1402.2 475.414L1364.36 507.929C1334.04 533.992 1343.25 583.103 1380.96 596.405L1434.98 615.462C1481.25 631.783 1481.25 697.217 1434.98 713.538L1380.96 732.595C1343.25 745.897 1334.04 795.008 1364.36 821.071L1402.2 853.586C1438.97 885.187 1416.3 945.473 1367.82 945.021L1294.72 944.341C1256.11 943.981 1230.59 984.344 1247.47 1019.07L1271.34 1068.19C1291.88 1110.43 1250.32 1156.09 1206.34 1139.61L1124.05 1108.79C1089.81 1095.97 1053.37 1121.55 1053.81 1158.12L1054.64 1226.56C1055.19 1271.83 1001.64 1296.13 967.93 1265.91L899.224 1204.3C873.124 1180.9 831.819 1189.5 817.228 1221.37L782.282 1297.71C763.754 1338.19 706.247 1338.19 687.718 1297.71L652.772 1221.37C638.181 1189.5 596.875 1180.9 570.776 1204.3L502.069 1265.91C468.363 1296.13 414.812 1271.83 415.359 1226.56L416.186 1158.12C416.628 1121.55 380.192 1095.97 345.95 1108.79L263.664 1139.61C219.681 1156.09 178.124 1110.43 198.656 1068.19L222.53 1019.07C239.41 984.343 213.889 943.981 175.278 944.341L102.177 945.021C53.6954 945.473 31.0299 885.187 67.8002 853.586L105.635 821.071C135.962 795.008 126.75 745.897 89.041 732.595L35.0181 713.538C-11.2509 697.217 -11.251 631.783 35.018 615.462L89.0409 596.405C126.75 583.103 135.962 533.992 105.635 507.929L67.8002 475.414C31.0299 443.813 53.6954 383.527 102.177 383.979L175.278 384.659C213.889 385.019 239.41 344.656 222.53 309.929L198.656 260.814C178.124 218.573 219.681 172.911 263.664 189.385L345.95 220.207C380.192 233.033 416.628 207.445 416.186 170.882L415.359 102.438C414.812 57.1692 468.363 32.8711 502.07 63.0945L570.776 124.7C596.876 148.102 638.181 139.502 652.772 107.628L687.718 31.2874Z" fill="#033680"/>
</svg>
